<svg width="800" height="580" viewBox="0 0 800 580" xmlns="http://www.w3.org/2000/svg" font-family="-apple-system, BlinkMacSystemFont, 'Segoe UI', Roboto, sans-serif">
  <defs>
    <linearGradient id="dmBg" x1="0" y1="0" x2="0" y2="1">
      <stop offset="0" stop-color="#ffffff"/><stop offset="1" stop-color="#f8f9fa"/>
    </linearGradient>
  </defs>
  <rect width="800" height="580" fill="url(#dmBg)"/>

  <!-- Browser window -->
  <rect x="40" y="40" width="560" height="430" rx="14" fill="#ffffff" stroke="#e5e5e5" stroke-width="1.5"/>
  <rect x="40" y="40" width="560" height="46" rx="14" fill="#2c2c2c"/>
  <rect x="40" y="72" width="560" height="14" fill="#2c2c2c"/>
  <circle cx="64" cy="63" r="6" fill="#d4a574"/>
  <circle cx="84" cy="63" r="6" fill="#5b6472"/>
  <circle cx="104" cy="63" r="6" fill="#5b6472"/>
  <rect x="150" y="52" width="420" height="22" rx="11" fill="#3a3f47"/>
  <text x="166" y="67" font-size="12" fill="#cfd4da">docmersion.io/handbook/employee-policies</text>

  <!-- Search bar -->
  <rect x="64" y="104" width="512" height="40" rx="20" fill="#f4f0ea" stroke="#d4a574" stroke-width="1.5"/>
  <circle cx="90" cy="124" r="8" fill="none" stroke="#d4a574" stroke-width="2.5"/>
  <line x1="96" y1="130" x2="104" y2="138" stroke="#d4a574" stroke-width="2.5" stroke-linecap="round"/>
  <text x="118" y="129" font-size="14" fill="#2c2c2c" font-weight="600">remote work</text>
  <text x="118" y="129" font-size="14" fill="#9aa0a8" opacity="0"> </text>
  <rect x="470" y="112" width="92" height="24" rx="12" fill="#d4a574"/>
  <text x="516" y="128" font-size="11" fill="#ffffff" text-anchor="middle" font-weight="600" letter-spacing="0.5">SEARCH</text>

  <!-- Language selector -->
  <rect x="64" y="158" width="150" height="30" rx="6" fill="#ffffff" stroke="#e5e5e5"/>
  <text x="78" y="178" font-size="12" fill="#5b6472">🌐 English ▾</text>
  <rect x="226" y="158" width="120" height="30" rx="6" fill="#eef4f0" stroke="#2f9e6b"/>
  <text x="240" y="178" font-size="11.5" fill="#2f9e6b" font-weight="600">WCAG 2.1 AA</text>

  <!-- Document content with highlighted matches -->
  <text x="64" y="222" font-size="18" fill="#2c2c2c" font-weight="700">Section 4 — Remote Work Policy</text>
  <rect x="64" y="238" width="200" height="10" rx="5" fill="#e8ebee"/>
  <rect x="64" y="258" width="470" height="9" rx="4.5" fill="#e8ebee"/>
  <rect x="64" y="276" width="448" height="9" rx="4.5" fill="#e8ebee"/>
  <!-- highlighted term -->
  <rect x="118" y="293" width="92" height="14" rx="3" fill="#f4e2c9"/>
  <rect x="64" y="294" width="470" height="9" rx="4.5" fill="#e8ebee"/>
  <rect x="64" y="312" width="500" height="9" rx="4.5" fill="#e8ebee"/>
  <rect x="64" y="330" width="360" height="9" rx="4.5" fill="#e8ebee"/>
  <rect x="290" y="347" width="92" height="14" rx="3" fill="#f4e2c9"/>
  <rect x="64" y="348" width="470" height="9" rx="4.5" fill="#e8ebee"/>
  <rect x="64" y="366" width="420" height="9" rx="4.5" fill="#e8ebee"/>

  <!-- Result chip -->
  <rect x="64" y="404" width="190" height="34" rx="17" fill="#fbf7f1" stroke="#d4a574"/>
  <text x="80" y="425" font-size="12" fill="#9a743f" font-weight="600">12 matches · 0.2s</text>

  <!-- Mobile device preview -->
  <rect x="628" y="120" width="132" height="270" rx="22" fill="#2c2c2c"/>
  <rect x="638" y="138" width="112" height="234" rx="8" fill="#ffffff"/>
  <rect x="676" y="128" width="36" height="6" rx="3" fill="#4a4f57"/>
  <rect x="650" y="152" width="88" height="22" rx="11" fill="#f4f0ea" stroke="#d4a574"/>
  <circle cx="662" cy="163" r="5" fill="none" stroke="#d4a574" stroke-width="2"/>
  <text x="650" y="200" font-size="9" fill="#2c2c2c" font-weight="700">Remote Work</text>
  <rect x="650" y="210" width="76" height="6" rx="3" fill="#e8ebee"/>
  <rect x="650" y="222" width="88" height="6" rx="3" fill="#e8ebee"/>
  <rect x="650" y="234" width="60" height="6" rx="3" fill="#f4e2c9"/>
  <rect x="650" y="246" width="88" height="6" rx="3" fill="#e8ebee"/>
  <rect x="650" y="258" width="80" height="6" rx="3" fill="#e8ebee"/>
  <rect x="650" y="276" width="88" height="6" rx="3" fill="#e8ebee"/>
  <rect x="650" y="288" width="70" height="6" rx="3" fill="#e8ebee"/>
  <text x="694" y="356" font-size="8" fill="#9aa0a8" text-anchor="middle">Mobile-friendly</text>

  <!-- Caption -->
  <text x="40" y="512" font-size="15" fill="#2c2c2c" font-weight="700">DocMersion</text>
  <text x="40" y="534" font-size="13" fill="#5b6472">Searchable · Translatable · Mobile-ready policy pages</text>
</svg>
